<svg xmlns="http://www.w3.org/2000/svg" xmlns:xlink="http://www.w3.org/1999/xlink" width="755" zoomAndPan="magnify" viewBox="0 0 567 567.000005" height="755" preserveAspectRatio="xMidYMid meet" version="1.0"><defs><clipPath id="13210e14a6"><path d="M 170 14.199219 L 434 14.199219 L 434 275 L 170 275 Z M 170 14.199219 " clip-rule="nonzero"/></clipPath><clipPath id="602f730e30"><path d="M 292.582031 237 L 566.457031 237 L 566.457031 532.546875 L 292.582031 532.546875 Z M 292.582031 237 " clip-rule="nonzero"/></clipPath><clipPath id="19518cc4e4"><path d="M 302 206.433594 L 556 206.433594 L 556 296 L 302 296 Z M 302 206.433594 " clip-rule="nonzero"/></clipPath></defs><path fill="#ef302b" d="M 474.96875 386.035156 C 447.707031 501.199219 338.304688 552.335938 223.464844 525 C 108.628906 497.671875 0.460938 379.550781 48.902344 234.765625 C 97.140625 90.578125 237.5 132.816406 352.332031 160.152344 C 467.171875 187.488281 502.226562 270.882812 474.96875 386.035156 " fill-opacity="1" fill-rule="nonzero"/><path fill="#cccbcb" d="M 283.53125 532.226562 L 283.523438 532.226562 L 283.53125 532.226562 M 283.53125 532.226562 C 374.476562 532.21875 452.535156 480.804688 474.96875 386.035156 C 474.980469 385.988281 474.992188 385.941406 475 385.890625 C 474.992188 385.9375 474.980469 385.988281 474.96875 386.035156 C 452.535156 480.816406 374.484375 532.226562 283.53125 532.226562 M 223.941406 525.113281 C 223.933594 525.113281 223.929688 525.113281 223.921875 525.113281 C 223.929688 525.113281 223.933594 525.113281 223.941406 525.113281 M 223.707031 525.058594 C 223.625 525.039062 223.542969 525.019531 223.464844 525 C 223.542969 525.019531 223.625 525.039062 223.707031 525.058594 M 223.300781 524.960938 C 223.292969 524.960938 223.292969 524.960938 223.292969 524.960938 L 223.300781 524.960938 M 223.128906 524.921875 C 223.128906 524.921875 223.121094 524.921875 223.117188 524.914062 C 223.121094 524.921875 223.121094 524.921875 223.128906 524.921875 M 222.957031 524.882812 C 222.957031 524.882812 222.945312 524.875 222.945312 524.875 C 222.953125 524.875 222.953125 524.882812 222.957031 524.882812 M 222.796875 524.84375 C 222.78125 524.835938 222.78125 524.835938 222.769531 524.835938 C 222.773438 524.835938 222.789062 524.835938 222.796875 524.84375 M 222.625 524.804688 C 222.613281 524.796875 222.613281 524.796875 222.597656 524.796875 C 222.605469 524.796875 222.617188 524.796875 222.625 524.804688 M 222.453125 524.757812 C 222.449219 524.757812 222.433594 524.757812 222.429688 524.75 C 222.433594 524.75 222.449219 524.757812 222.453125 524.757812 M 222.285156 524.71875 C 222.277344 524.710938 222.269531 524.710938 222.257812 524.710938 C 222.265625 524.710938 222.277344 524.71875 222.285156 524.71875 M 222.113281 524.679688 C 222.105469 524.671875 222.101562 524.671875 222.085938 524.671875 C 222.101562 524.671875 222.105469 524.671875 222.113281 524.679688 M 221.945312 524.632812 C 221.9375 524.632812 221.929688 524.632812 221.925781 524.625 C 221.929688 524.632812 221.9375 524.632812 221.945312 524.632812 M 221.773438 524.59375 C 221.765625 524.59375 221.761719 524.59375 221.753906 524.585938 C 221.761719 524.59375 221.765625 524.59375 221.773438 524.59375 M 221.601562 524.546875 C 221.597656 524.546875 221.597656 524.546875 221.589844 524.546875 L 221.601562 524.546875 M 475.011719 385.84375 C 475.019531 385.804688 475.03125 385.765625 475.039062 385.726562 C 475.03125 385.765625 475.019531 385.8125 475.011719 385.84375 M 475.050781 385.667969 C 475.066406 385.628906 475.070312 385.601562 475.078125 385.5625 C 475.070312 385.601562 475.066406 385.632812 475.050781 385.667969 M 475.09375 385.503906 C 475.105469 385.460938 475.105469 385.441406 475.113281 385.410156 C 475.105469 385.441406 475.097656 385.46875 475.09375 385.503906 M 475.136719 385.304688 C 475.144531 385.285156 475.152344 385.253906 475.15625 385.234375 C 475.152344 385.257812 475.144531 385.277344 475.136719 385.304688 M 475.175781 385.152344 C 475.175781 385.132812 475.183594 385.113281 475.191406 385.09375 C 475.183594 385.113281 475.175781 385.132812 475.175781 385.152344 M 475.222656 384.945312 C 475.230469 384.925781 475.230469 384.925781 475.230469 384.910156 C 475.230469 384.925781 475.230469 384.925781 475.222656 384.945312 M 475.253906 384.804688 C 475.261719 384.800781 475.253906 384.8125 475.253906 384.804688 " fill-opacity="1" fill-rule="nonzero"/><path fill="#bf2621" d="M 283.53125 532.226562 L 283.523438 532.226562 C 264.117188 532.21875 244.105469 529.875 223.941406 525.113281 C 223.933594 525.113281 223.929688 525.113281 223.921875 525.113281 C 223.84375 525.09375 223.785156 525.078125 223.707031 525.058594 C 223.625 525.039062 223.542969 525.019531 223.464844 525 C 223.410156 524.988281 223.359375 524.972656 223.300781 524.960938 L 223.292969 524.960938 C 223.234375 524.949219 223.179688 524.933594 223.128906 524.921875 C 223.121094 524.921875 223.121094 524.921875 223.117188 524.914062 C 223.0625 524.910156 223.019531 524.894531 222.957031 524.882812 C 222.953125 524.882812 222.953125 524.875 222.945312 524.875 C 222.894531 524.863281 222.839844 524.851562 222.796875 524.84375 C 222.789062 524.835938 222.773438 524.835938 222.769531 524.835938 C 222.722656 524.824219 222.671875 524.808594 222.625 524.804688 C 222.617188 524.796875 222.605469 524.796875 222.597656 524.796875 C 222.550781 524.785156 222.5 524.769531 222.453125 524.757812 C 222.449219 524.757812 222.433594 524.75 222.429688 524.75 C 222.382812 524.738281 222.328125 524.730469 222.285156 524.71875 C 222.277344 524.71875 222.265625 524.710938 222.257812 524.710938 C 222.210938 524.699219 222.160156 524.683594 222.113281 524.679688 C 222.105469 524.671875 222.101562 524.671875 222.085938 524.671875 C 222.042969 524.660156 221.988281 524.644531 221.945312 524.632812 C 221.9375 524.632812 221.929688 524.632812 221.925781 524.625 C 221.871094 524.621094 221.824219 524.605469 221.773438 524.59375 C 221.765625 524.59375 221.761719 524.59375 221.753906 524.585938 C 221.703125 524.574219 221.65625 524.5625 221.601562 524.546875 L 221.589844 524.546875 C 221.539062 524.535156 221.484375 524.519531 221.425781 524.507812 C 164.136719 510.328125 108.765625 473.585938 73.902344 422.316406 C 116.15625 461.5 172.554688 485.054688 227.25 489.007812 C 233.851562 489.488281 240.394531 489.71875 246.871094 489.71875 C 355.875 489.71875 445.25 422.816406 453.261719 311.386719 C 456.171875 270.929688 452.449219 235.332031 441.558594 205.667969 C 483.402344 246.792969 492.980469 308.828125 475.253906 384.804688 C 475.253906 384.8125 475.261719 384.800781 475.253906 384.804688 C 475.25 384.839844 475.242188 384.871094 475.230469 384.910156 C 475.230469 384.925781 475.230469 384.925781 475.222656 384.945312 C 475.214844 384.988281 475.203125 385.042969 475.191406 385.09375 C 475.183594 385.113281 475.175781 385.132812 475.175781 385.152344 C 475.171875 385.1875 475.164062 385.207031 475.15625 385.234375 C 475.152344 385.253906 475.144531 385.285156 475.136719 385.304688 C 475.132812 385.339844 475.125 385.378906 475.113281 385.410156 C 475.105469 385.441406 475.105469 385.460938 475.09375 385.503906 C 475.09375 385.523438 475.085938 385.542969 475.078125 385.5625 C 475.070312 385.601562 475.066406 385.628906 475.050781 385.667969 C 475.050781 385.6875 475.046875 385.707031 475.039062 385.726562 C 475.03125 385.765625 475.019531 385.804688 475.011719 385.84375 C 475.007812 385.863281 475.007812 385.871094 475 385.890625 C 474.992188 385.941406 474.980469 385.988281 474.96875 386.035156 C 452.535156 480.804688 374.476562 532.21875 283.53125 532.226562 " fill-opacity="1" fill-rule="nonzero"/><path fill="#f1493a" d="M 165.761719 306.449219 C 158.824219 335.75 129.523438 353.871094 100.292969 346.914062 C 71.066406 339.953125 53.003906 310.5625 59.9375 281.253906 C 78.265625 203.863281 103.382812 173.964844 132.613281 180.921875 C 161.835938 187.875 119.757812 264.703125 165.761719 306.449219 " fill-opacity="1" fill-rule="nonzero"/><path fill="#2e5223" d="M 337.253906 193.011719 C 396.5625 218.464844 356.183594 299.558594 345.4375 318.421875 C 352.417969 257.089844 335.730469 211.980469 269.925781 213.957031 C 225.917969 162.640625 132.023438 237.386719 132.023438 237.386719 C 132.023438 237.386719 181.957031 133.933594 274.949219 169.363281 C 274.949219 169.363281 160.015625 97.902344 112.714844 159.71875 C 145.300781 106.996094 223.71875 86.519531 293.839844 139.964844 C 293.839844 139.964844 421.667969 160.1875 461.664062 107.976562 C 420.460938 195.882812 373.140625 171.304688 367.257812 174.945312 C 367.257812 174.945312 456.753906 197.933594 482.714844 257.871094 C 433.371094 216.722656 337.253906 193.011719 337.253906 193.011719 " fill-opacity="1" fill-rule="nonzero"/><g clip-path="url(#13210e14a6)"><path fill="#447a2e" d="M 225.042969 255.578125 C 225.042969 255.578125 250.101562 199.460938 296.105469 216.863281 C 342.109375 234.273438 310.226562 266.871094 304.617188 274.523438 C 304.617188 274.523438 367.480469 253.210938 353.339844 220.867188 C 339.199219 188.527344 419.472656 244.152344 414.46875 255.785156 C 421.386719 226.46875 372.550781 190.476562 349.832031 183.132812 C 349.832031 183.132812 408.910156 169.421875 433.710938 207.738281 C 417.121094 157.566406 336.402344 146.367188 322.054688 157.734375 C 322.054688 157.734375 351.886719 129.527344 358.59375 59.753906 C 330.300781 98.566406 309.28125 125.902344 283.988281 139.117188 C 283.988281 139.117188 246.4375 75.851562 283.253906 14.246094 C 224.707031 41.691406 235.960938 127.996094 259.414062 143.148438 C 259.414062 143.148438 195.496094 134.464844 170.304688 173.652344 C 213.527344 158.601562 245.023438 164.371094 275.433594 175.46875 C 275.433594 175.46875 215.222656 200.027344 225.042969 255.578125 " fill-opacity="1" fill-rule="nonzero"/></g><path fill="#5dab33" d="M 317.96875 183.507812 L 311.808594 175.890625 L 429.605469 43.550781 L 453.570312 73.179688 L 317.96875 183.507812 " fill-opacity="1" fill-rule="nonzero"/><g clip-path="url(#602f730e30)"><path fill="#f15363" d="M 566.382812 395.957031 C 566.382812 471.417969 505.132812 532.546875 429.519531 532.546875 C 353.90625 532.546875 292.65625 471.417969 292.65625 395.957031 C 292.65625 359.011719 307.34375 325.464844 331.332031 300.863281 L 319.546875 289.183594 L 334.402344 274.359375 L 347.019531 286.949219 C 366.109375 272.535156 389.183594 263.007812 414.246094 260.191406 L 414.246094 237.910156 L 444.707031 237.910156 L 444.707031 260.277344 C 469.773438 263.007812 492.765625 272.535156 511.855469 286.949219 L 524.46875 274.359375 L 539.328125 289.183594 L 527.707031 300.863281 C 551.609375 325.464844 566.382812 359.011719 566.382812 395.957031 Z M 566.382812 395.957031 " fill-opacity="1" fill-rule="nonzero"/></g><path fill="#f7f2e8" d="M 429.519531 281.066406 C 493.097656 281.066406 544.640625 332.507812 544.640625 395.957031 C 544.640625 459.40625 493.097656 510.847656 429.519531 510.847656 C 365.941406 510.847656 314.316406 459.488281 314.316406 395.957031 C 314.316406 332.421875 365.859375 281.066406 429.519531 281.066406 Z M 429.519531 281.066406 " fill-opacity="1" fill-rule="nonzero"/><g clip-path="url(#19518cc4e4)"><path fill="#f7b168" d="M 464.128906 221.097656 L 464.128906 228.46875 C 464.128906 236.585938 457.574219 243.128906 449.4375 243.128906 L 409.601562 243.128906 C 401.464844 243.128906 394.910156 236.585938 394.910156 228.46875 L 394.910156 221.097656 C 394.910156 212.976562 401.464844 206.433594 409.601562 206.433594 L 449.4375 206.433594 C 457.574219 206.433594 464.128906 212.976562 464.128906 221.097656 Z M 552.855469 274.855469 L 538.914062 260.9375 C 534.761719 256.796875 528.039062 256.796875 523.890625 260.9375 L 521.316406 263.507812 C 517.167969 267.648438 517.167969 274.359375 521.316406 278.5 L 535.261719 292.414062 C 539.410156 296.558594 546.132812 296.558594 550.28125 292.414062 L 552.855469 289.847656 C 557.003906 285.707031 557.003906 278.996094 552.855469 274.855469 Z M 335.066406 260.9375 C 330.917969 256.796875 324.195312 256.796875 320.042969 260.9375 L 306.101562 274.855469 C 301.949219 278.996094 301.949219 285.707031 306.101562 289.847656 L 308.671875 292.414062 C 312.824219 296.558594 319.546875 296.558594 323.695312 292.414062 L 337.722656 278.5 C 341.871094 274.359375 341.871094 267.648438 337.722656 263.507812 Z M 335.066406 260.9375 " fill-opacity="1" fill-rule="nonzero"/></g><path fill="#f6ad9a" d="M 429.519531 395.957031 L 429.519531 292.414062 C 486.457031 292.414062 533.269531 339.132812 533.269531 395.957031 C 533.269531 452.78125 486.457031 499.496094 429.519531 499.496094 C 392.503906 499.496094 358.140625 479.699219 339.632812 447.726562 Z M 429.519531 395.957031 " fill-opacity="1" fill-rule="nonzero"/></svg>